{"title":"Motorway (2012) 480p BRRip x264 350Mb Hindi ~Chaudhary~","uid":9511866,"size":375888387,"categoryP":"video","categoryS":"movies","magnet":"?xt=urn:btih:39625a9895c75f78e05f7607913c47bdd474042c&amp;dn=Motorway+%282012%29+480p+BRRip+x264+350Mb+Hindi+%7EChaudhary%7E&amp;tr=udp%3A%2F%2Ftracker.openbittorrent.com%3A80&amp;tr=udp%3A%2F%2Fopen.demonii.com%3A1337&amp;tr=udp%3A%2F%2Ftracker.coppersurfer.tk%3A6969&amp;tr=udp%3A%2F%2Fexodus.desync.com%3A6969","seeders":1,"leechers":0,"uploader":"Chaudhary1","files":3,"time":1390424687,"description":" &lt;a href=&quot;https://imagizer.imageshack.us/v2/494x609q90/812/pmjt.jpg&quot; rel=&quot;nofollow&quot; target=&quot;_NEW&quot;&gt;https://imagizer.imageshack.us/v2/494x609q90/812/pmjt.jpg&lt;/a&gt;\n\nComplete name : Motorway (2012) 480p BRRip x264 350Mb Hindi ~Chaudhary~.mkv\nFormat : Matroska\nFormat version : Version 4 / Version 2\nFile size : 352 MiB\nDuration : 1h 29mn\nOverall bit rate : 553 Kbps\nMovie name : Chaudhary\n\n\nVideo\nID : 1\nFormat : AVC\nFormat/Info : Advanced Video Codec\nFormat profile : &lt;a class=&quot;__cf_email__&quot; href=&quot;/cdn-cgi/l/email-protection&quot; data-cfemail=&quot;753d1c121d3539465b44&quot;&gt;[email&amp;#160;protected]&lt;/a&gt;&lt;script cf-hash='f9e31' type=&quot;text/javascript&quot;&gt;\n/* &lt;![CDATA[ */!function(){try{var t=&quot;currentScript&quot;in document?document.currentScript:function(){for(var t=document.getElementsByTagName(&quot;script&quot;),e=t.length;e--;)if(t[e].getAttribute(&quot;cf-hash&quot;))return t[e]}();if(t&amp;&amp;t.previousSibling){var e,r,n,i,c=t.previousSibling,a=c.getAttribute(&quot;data-cfemail&quot;);if(a){for(e=&quot;&quot;,r=parseInt(a.substr(0,2),16),n=2;a.length-n;n+=2)i=parseInt(a.substr(n,2),16)^r,e+=String.fromCharCode(i);e=document.createTextNode(e),c.parentNode.replaceChild(e,c)}}}catch(u){}}();/* ]]&gt; */&lt;/script&gt;\nFormat settings, CABAC : Yes\nFormat settings, ReFrames : 4 frames\nCodec ID : V_MPEG4/ISO/AVC\nDuration : 1h 29mn\nBit rate : 487 Kbps\nWidth : 704 pixels\nHeight : 384 pixels\nDisplay aspect ratio : 16:9\nFrame rate : 24.000 fps\nColor space : YUV\nChroma subsampling : 4:2:0\nBit depth : 8 bits\nScan type : Progressive\nBits/(Pixel*Frame) : 0.075\nStream size : 305 MiB (86%)\nTitle : Chaudhary\nWriting library : x264 core 138 r2358\nLanguage : English\nDefault : Yes\nForced : No\n\nAudio\nID : 2\nFormat : AC-3\nFormat/Info : Audio Coding 3\nMode extension : CM (complete main)\nCodec ID : A_AC3\nDuration : 1h 29mn\nBit rate mode : Constant\nBit rate : 64.0 Kbps\nChannel(s) : 2 channels\nChannel positions : Front: L R\nSampling rate : 48.0 KHz\nBit depth : 16 bits\nCompression mode : Lossy\nStream size : 40.8 MiB (12%)\nTitle : Chaudhary\nLanguage : Hindi\nDefault : Yes\nForced : No\n &lt;a href=&quot;\nhttp://i.imgur.com/i2LOTQM.png&quot; rel=&quot;nofollow&quot; target=&quot;_NEW&quot;&gt;\nhttp://i.imgur.com/i2LOTQM.png&lt;/a&gt; &lt;a href=&quot;\nhttp://i.imgur.com/yWqXauj.png&quot; rel=&quot;nofollow&quot; target=&quot;_NEW&quot;&gt;\nhttp://i.imgur.com/yWqXauj.png&lt;/a&gt; &lt;a href=&quot;\nhttp://i.imgur.com/BW2KToC.png&quot; rel=&quot;nofollow&quot; target=&quot;_NEW&quot;&gt;\nhttp://i.imgur.com/BW2KToC.png&lt;/a&gt; &lt;a href=&quot;\nhttp://i.imgur.com/v9cjaD9.png&quot; rel=&quot;nofollow&quot; target=&quot;_NEW&quot;&gt;\nhttp://i.imgur.com/v9cjaD9.png&lt;/a&gt; &lt;a href=&quot;\nhttp://i.imgur.com/VS3ROEm.png&quot; rel=&quot;nofollow&quot; target=&quot;_NEW&quot;&gt;\nhttp://i.imgur.com/VS3ROEm.png&lt;/a&gt;\n\nNote:\n\nThanks To my Bro Mr.khan\n\n\nThanks BHATTI87 For Hindi Audio","torrent":{"xt":"urn:btih:39625a9895c75f78e05f7607913c47bdd474042c","amp;dn":"Motorway+%282012%29+480p+BRRip+x264+350Mb+Hindi+%7EChaudhary%7E","amp;tr":["udp%3A%2F%2Ftracker.openbittorrent.com%3A80","udp%3A%2F%2Fopen.demonii.com%3A1337","udp%3A%2F%2Ftracker.coppersurfer.tk%3A6969","udp%3A%2F%2Fexodus.desync.com%3A6969"],"infoHash":"39625a9895c75f78e05f7607913c47bdd474042c","infoHashBuffer":{"type":"Buffer","data":[57,98,90,152,149,199,95,120,224,95,118,7,145,60,71,189,212,116,4,44]},"announce":[],"urlList":[]}}